<?xml version="1.0" standalone="no"?> <!DOCTYPE svg PUBLIC "-//W3C//DTD SVG 20010904//EN" "http://www.w3.org/TR/2001/REC-SVG-20010904/DTD/svg10.dtd"> <svg version="1.0" xmlns="http://www.w3.org/2000/svg" width="600.000000pt" height="335.000000pt" viewBox="0 0 600.000000 335.000000" preserveAspectRatio="xMidYMid meet"> <g transform="translate(0.000000,335.000000) scale(0.100000,-0.100000)" fill="#3f8bee" stroke="none"> <path d="M3040 1730 l0 -920 203 2 202 3 1 283 c1 155 -1 282 -5 282 -3 0 -26 -32 -51 -71 l-45 -71 -5 -157 -5 -156 -90 0 -90 0 -2 270 -2 270 27 42 c63 96 407 608 412 613 3 3 10 13 15 22 6 9 51 77 100 150 50 73 95 140 100 148 63 99 50 90 128 91 129 1 281 -2 285 -6 2 -1 -28 -51 -67 -110 -39 -58 -71 -108 -71 -111 0 -3 -11 -17 -25 -32 -14 -15 -25 -30 -25 -35 0 -4 -18 -32 -40 -62 -22 -30 -40 -58 -40 -64 0 -5 -4 -11 -8 -13 -5 -1 -53 -70 -108 -153 -55 -82 -120 -179 -144 -214 -28 -41 -40 -66 -32 -69 7 -2 12 -7 12 -12 0 -5 36 -63 80 -129 44 -66 80 -124 80 -130 0 -5 4 -11 8 -13 5 -2 26 -30 47 -63 22 -33 43 -64 48 -70 14 -19 199 -300 203 -310 3 -6 -23 -11 -64 -13 l-68 -2 -35 47 c-19 27 -52 75 -74 108 -21 33 -96 147 -167 253 -70 106 -128 197 -128 201 0 4 -8 15 -18 24 -17 16 -20 15 -40 -13 -27 -36 -39 -85 -23 -94 6 -4 9 -12 6 -17 -4 -5 -2 -9 3 -9 8 0 19 -16 117 -170 26 -41 52 -76 56 -78 5 -2 9 -9 9 -15 0 -7 9 -23 20 -37 25 -31 166 -245 186 -282 l14 -27 211 0 c165 0 209 2 202 12 -5 6 -31 46 -58 87 -26 41 -65 101 -86 133 -22 32 -39 59 -39 62 0 4 -137 212 -152 230 -25 30 -88 127 -88 135 0 5 -6 15 -12 22 -20 21 -58 76 -58 83 0 4 -14 26 -31 50 -30 41 -30 44 -15 71 23 42 37 62 79 121 20 29 37 54 37 57 0 5 70 110 93 141 43 58 229 330 262 384 19 32 110 166 115 171 12 11 40 60 40 70 0 7 -95 10 -309 10 l-309 -2 -38 -56 c-22 -31 -42 -61 -47 -67 -12 -16 -150 -226 -170 -259 -11 -17 -30 -46 -44 -64 -41 -54 -273 -404 -273 -412 0 -3 -11 -17 -24 -29 -14 -13 -30 -36 -37 -53 -6 -16 -15 -25 -18 -20 -9 15 -13 815 -4 829 11 16 103 29 104 14 1 -6 3 -15 4 -21 1 -5 3 -128 4 -272 1 -202 4 -258 13 -243 6 11 14 22 17 25 3 3 22 30 42 61 l37 55 0 257 0 257 -169 0 -169 0 0 -920z m1359 890 c2 0 -4 -9 -14 -20 -10 -11 -23 -29 -29 -39 -6 -11 -69 -107 -141 -213 -71 -106 -133 -200 -137 -208 -3 -8 -14 -24 -25 -35 -16 -18 -79 -110 -108 -157 -5 -9 -28 -43 -49 -75 -22 -32 -61 -90 -87 -130 l-47 -72 39 -56 c21 -31 39 -58 39 -61 0 -2 15 -26 33 -52 17 -26 37 -55 42 -64 6 -9 42 -62 80 -119 83 -122 111 -166 127 -196 6 -13 15 -23 20 -23 4 0 8 -4 8 -10 0 -5 20 -39 45 -76 25 -36 45 -67 45 -70 0 -8 55 -89 63 -92 32 -15 -18 -21 -173 -21 -176 0 -180 0 -197 23 -22 29 -18 23 -147 221 -58 88 -140 214 -183 280 l-79 120 22 33 22 33 39 -63 c21 -35 91 -142 156 -238 64 -96 141 -211 170 -255 l52 -80 98 -3 c53 -1 97 1 97 5 0 5 -13 24 -28 43 -16 19 -32 42 -35 50 -4 8 -15 27 -25 41 -9 14 -39 59 -66 100 -185 277 -226 340 -226 345 0 3 -18 29 -40 59 -22 30 -40 58 -40 63 0 5 -9 17 -20 27 -32 29 -36 20 96 214 16 22 107 160 119 179 6 9 27 40 48 69 20 29 37 56 37 62 0 5 4 11 8 13 4 2 40 50 78 108 39 58 84 125 101 150 17 25 40 62 52 83 l21 37 -203 0 -203 0 -45 -65 c-24 -37 -48 -74 -54 -83 -5 -9 -26 -39 -45 -67 -19 -27 -39 -58 -45 -67 -9 -16 -308 -461 -472 -702 l-62 -91 0 -287 -1 -288 115 0 115 0 0 162 0 161 31 49 c17 26 33 48 35 48 2 0 4 -110 4 -245 l0 -245 -185 0 -185 0 0 895 0 895 145 0 c109 0 145 -3 145 -12 0 -7 1 -117 1 -244 l0 -231 -27 -42 c-15 -22 -31 -41 -36 -41 -5 0 -7 78 -5 173 2 94 1 209 -1 255 l-4 82 -51 0 c-29 0 -62 -3 -74 -6 l-23 -6 0 -469 c0 -437 4 -515 26 -446 4 12 9 24 13 27 3 3 33 46 66 95 33 50 62 92 65 95 3 3 21 30 40 60 19 30 38 60 43 65 4 6 27 39 51 75 23 36 111 166 195 290 84 124 161 239 171 255 l19 30 288 -2 c158 -2 290 -3 292 -3z"/> <path d="M1661 2160 c1 -378 1 -380 22 -392 12 -6 28 -17 35 -25 8 -8 42 -32 76 -55 56 -39 113 -80 176 -128 58 -45 210 -156 270 -198 36 -25 70 -50 77 -56 31 -27 41 -34 60 -40 12 -4 24 -13 27 -21 13 -36 26 -11 26 53 0 64 -2 70 -30 90 -16 12 -34 22 -40 22 -5 0 -10 4 -10 9 0 5 -8 12 -19 16 -10 3 -31 19 -47 35 -16 16 -33 30 -38 30 -4 0 -21 10 -36 23 -28 22 -41 31 -102 75 -18 13 -96 70 -173 128 -77 57 -143 104 -147 104 -5 0 -8 133 -8 295 l0 295 525 0 525 0 0 -170 0 -170 -55 0 -55 0 0 125 c0 69 -3 125 -7 126 -51 5 -537 6 -660 2 l-163 -6 0 -211 0 -211 33 -26 c17 -14 85 -63 150 -110 144 -102 156 -110 244 -176 76 -57 136 -101 226 -163 l57 -41 0 -124 c0 -69 -3 -125 -7 -125 -103 -5 -554 -8 -570 -4 -22 6 -23 10 -23 125 l0 119 -170 0 -170 0 2 -282 3 -283 638 -2 637 -2 0 384 c0 276 -3 385 -11 385 -6 0 -32 17 -58 38 -25 20 -53 42 -62 47 -22 14 -109 76 -260 187 -70 51 -137 100 -149 108 -12 8 -43 31 -69 51 -25 19 -70 52 -98 73 l-53 38 0 -70 0 -71 94 -68 c52 -37 104 -75 116 -83 12 -8 49 -36 82 -62 34 -27 63 -48 67 -48 3 0 17 -10 31 -23 14 -12 45 -36 70 -53 82 -55 115 -79 153 -108 l37 -29 -2 -291 -3 -291 -522 0 -523 0 0 171 0 171 55 2 55 2 0 -126 0 -125 58 0 c140 -1 748 -1 759 -1 14 1 19 431 6 431 -8 0 -96 62 -139 98 -11 9 -40 30 -65 47 -24 16 -65 46 -91 65 -26 19 -66 49 -90 66 -24 17 -107 78 -185 135 l-143 104 0 122 0 123 145 0 c80 0 208 1 285 1 77 0 147 -1 155 -1 12 0 15 -20 15 -120 l0 -120 170 2 170 3 1 280 1 280 -641 2 -641 3 1 -380z m1257 92 l2 -263 -145 2 c-80 0 -145 4 -146 7 0 4 -2 56 -2 116 -2 105 -3 109 -26 118 -13 4 -157 7 -320 6 l-296 -3 -3 -142 -3 -142 62 -43 c34 -24 71 -50 83 -58 11 -8 42 -31 67 -50 26 -19 57 -43 70 -52 13 -9 63 -45 110 -80 48 -35 112 -81 144 -103 31 -22 66 -48 78 -57 12 -10 27 -21 32 -26 6 -4 25 -18 43 -31 l32 -23 -2 -191 -3 -192 -390 0 -390 0 -3 123 -3 122 -74 0 -75 0 0 -195 0 -195 540 0 c507 0 540 1 541 18 1 9 2 149 3 311 2 217 -1 297 -10 305 -11 10 -126 91 -179 126 -30 19 -346 251 -362 265 -6 5 -30 23 -52 39 -37 27 -41 34 -41 74 l0 44 53 -38 c28 -21 126 -93 217 -159 91 -67 181 -132 200 -145 19 -14 40 -28 45 -33 6 -4 54 -39 107 -78 l97 -70 1 -365 0 -365 -616 3 -617 3 0 260 0 260 147 3 146 3 0 -126 0 -125 315 0 c289 0 315 1 323 18 5 9 9 73 8 141 l-1 125 -45 33 c-25 18 -65 48 -90 65 -25 18 -50 38 -56 43 -6 6 -22 17 -34 25 -18 12 -118 84 -215 154 -11 8 -65 46 -119 85 -55 39 -112 82 -128 96 l-28 25 0 195 0 195 395 0 395 0 0 -125 0 -125 75 0 75 0 -1 108 c0 59 -3 145 -6 192 l-5 85 -533 0 c-293 0 -536 -3 -539 -6 -4 -3 -7 -143 -7 -310 0 -266 1 -305 15 -315 9 -6 26 -19 39 -28 12 -9 67 -48 122 -88 55 -40 118 -85 141 -101 22 -15 50 -36 62 -47 12 -11 24 -20 27 -20 4 0 54 -36 112 -81 59 -44 112 -83 119 -86 15 -5 17 -83 2 -83 -10 0 -90 53 -139 93 -19 15 -65 49 -104 77 -38 27 -83 60 -99 72 -15 13 -45 34 -65 48 -32 22 -129 92 -156 112 -5 5 -41 32 -80 61 l-70 53 -1 354 c-1 195 0 357 2 360 1 3 278 5 616 5 l613 0 3 -263z"/> <path d="M3876 2365 c-20 -30 -36 -57 -36 -61 0 -3 -6 -12 -14 -19 -7 -8 -40 -53 -72 -102 -33 -48 -62 -89 -66 -91 -5 -2 -8 -8 -8 -13 0 -6 -17 -33 -38 -62 -22 -29 -41 -56 -43 -62 -5 -13 -141 -217 -154 -231 -5 -6 -16 -20 -23 -30 -51 -77 -99 -149 -107 -163 -6 -9 -19 -28 -29 -44 -14 -21 -19 -46 -18 -108 0 -44 3 -83 6 -86 3 -4 6 0 6 7 0 8 9 23 19 34 10 12 75 104 143 206 68 102 133 199 144 215 12 17 48 71 80 120 32 50 76 114 96 142 21 29 39 56 39 60 0 5 8 17 17 28 29 34 62 84 62 94 0 5 3 11 8 13 4 2 34 44 67 93 32 50 63 96 68 103 7 9 -4 12 -50 12 l-60 0 -37 -55z m114 31 c0 -3 -62 -96 -137 -208 -75 -112 -165 -246 -200 -298 -34 -52 -70 -104 -78 -115 -9 -11 -30 -42 -48 -69 -47 -73 -74 -113 -154 -232 -40 -59 -73 -111 -73 -115 0 -5 -4 -9 -10 -9 -5 0 -10 20 -10 45 0 50 -9 34 171 299 52 76 102 152 113 170 10 17 22 33 27 34 5 2 9 7 9 12 0 7 130 203 210 318 16 23 30 47 30 52 0 4 3 10 8 12 4 2 23 27 42 55 30 46 39 53 68 53 17 0 32 -2 32 -4z"/> </g> </svg>